<svg xmlns="http://www.w3.org/2000/svg" viewBox="0 0 380 80" width="380" height="80">
  <style>
    @import url('https://fonts.googleapis.com/css2?family=Inter:wght@400;500;600;800&amp;display=swap');
    text { font-family: 'Inter', system-ui, sans-serif; }
  </style>
  <!-- V4 Circuit (Light) -->
  <text x="0" y="48" font-size="48" font-weight="600" fill="#357895" letter-spacing="-0.03em">C</text>
  <circle cx="24" cy="30" r="7" fill="#357895"/>
  <line x1="24" y1="23" x2="24" y2="19" stroke="#18181B" stroke-width="1.3" stroke-linecap="round"/>
  <circle cx="50" cy="36" r="11" fill="#357895"/>
  <line x1="50" y1="25" x2="50" y2="19" stroke="#18181B" stroke-width="1.8" stroke-linecap="round"/>
  <text x="64" y="48" font-size="48" font-weight="600" fill="#357895" letter-spacing="-0.03em">laberry</text>
  <!-- AI with circuit traces -->
  <text x="198" y="48" font-size="48" font-weight="800" fill="#18181B" letter-spacing="-0.03em">AI</text>
  <path d="M258 48 L258 52 L302 52 L302 48" stroke="#357895" stroke-width="1.5" opacity="0.35" fill="none"/>
  <path d="M270 12 L270 8 L290 8 L290 12" stroke="#357895" stroke-width="1.5" opacity="0.35" fill="none"/>
  <rect x="256" y="50" width="4" height="4" rx="0.5" fill="#357895" opacity="0.5"/>
  <rect x="300" y="50" width="4" height="4" rx="0.5" fill="#357895" opacity="0.5"/>
  <rect x="268" y="6" width="4" height="4" rx="0.5" fill="#357895" opacity="0.5"/>
  <rect x="288" y="6" width="4" height="4" rx="0.5" fill="#357895" opacity="0.5"/>
  <circle cx="280" cy="52" r="2" fill="#357895" opacity="0.4"/>
  <circle cx="280" cy="8" r="2" fill="#357895" opacity="0.4"/>
  <!-- Beaker + Research Labs -->
  <path d="M5 60 L5 67 L1 75 L15 75 L11 67 L11 60" stroke="#357895" stroke-width="1.2" fill="none" opacity="0.5" stroke-linejoin="round"/>
  <line x1="4" y1="60" x2="12" y2="60" stroke="#357895" stroke-width="1.2" opacity="0.5"/>
  <text x="20" y="73" font-size="11" font-weight="500" fill="#A1A1AA" letter-spacing="0.2em">RESEARCH LABS</text>
</svg>